<!DOCTYPE svg PUBLIC "-//W3C//DTD SVG 1.1//EN" "http://www.w3.org/Graphics/SVG/1.1/DTD/svg11.dtd">
<!-- Uploaded to: SVG Repo, www.svgrepo.com, Transformed by: SVG Repo Mixer Tools -->
<svg fill="#000000" height="800px" width="800px" version="1.1" id="Layer_1" xmlns="http://www.w3.org/2000/svg" xmlns:xlink="http://www.w3.org/1999/xlink" viewBox="0 0 297 297" xml:space="preserve">
<g id="SVGRepo_bgCarrier" stroke-width="0"/>
<g id="SVGRepo_tracerCarrier" stroke-linecap="round" stroke-linejoin="round"/>
<g id="SVGRepo_iconCarrier"> <g> <g> <path d="M248.596,80.468c-3.988-8.124-10.903-14.209-19.467-17.133l-27.689-9.453l7.109-20.824c1.707-5-0.962-10.437-5.962-12.144 L142.833,0.512c-2.402-0.818-5.03-0.651-7.308,0.466c-2.278,1.118-4.017,3.095-4.838,5.497l-7.109,20.823l-27.69-9.454 c-17.676-6.036-36.974,3.438-43.012,21.118l-7.444,21.804c-0.819,2.402-0.652,5.03,0.466,7.308 c1.118,2.278,3.095,4.017,5.496,4.838l46.897,16.011H57.694c-2.636,0-5.155,1.087-6.963,3.006 c-1.808,1.919-2.744,4.498-2.587,7.13L59.42,288.003c0.302,5.053,4.488,8.997,9.55,8.997h135.3c5.062,0,9.248-3.943,9.55-8.997 l9.336-156.45l7.502,2.561c1.025,0.349,2.068,0.516,3.092,0.516c3.979,0,7.695-2.503,9.053-6.478l7.444-21.805 C253.171,97.783,252.585,88.591,248.596,80.468z M79.697,277.866h-1.715l-10.134-169.81h5.631h6.218V277.866z M145.704,21.71 l41.647,14.219l-4.018,11.77L141.686,33.48L145.704,21.71z M110.14,277.866H98.831v-169.81h11.309V277.866z M143.966,277.866 h-14.692v-169.81h14.692V277.866z M174.408,277.867h-11.309v-0.001V111.049l11.309,3.861V277.867z M195.257,277.866h-1.715 V121.442l10.83,3.698L195.257,277.866z M232.14,100.165l-4.353,12.751L66.631,57.895l4.354-12.75 c2.628-7.695,11.03-11.818,18.722-9.193l133.241,45.491c3.728,1.272,6.738,3.921,8.474,7.457 C233.158,92.436,233.414,96.438,232.14,100.165z"/> </g> </g> </g>
</svg>